<?xml version="1.0" encoding="UTF-8" standalone="no"?>
<!-- Created with Inkscape (http://www.inkscape.org/) -->

<svg
   version="1.1"
   id="svg1"
   width="1659.549"
   height="2401.8118"
   viewBox="0 0 1659.549 2401.8118"
   xmlns="http://www.w3.org/2000/svg"
   xmlns:svg="http://www.w3.org/2000/svg">
  <defs
     id="defs1" />
  <g
     id="g1"
     transform="translate(-584.4376,-213.28149)">
    <g
       id="group-R5">
      <path
         id="path2"
         d="m 10499.3,16162.3 c -0.2,0 -0.3,0 -0.4,0 -35.7,0 -71.6,-6 -103.9,-17.4 -114.2,-39.5 -206.7,-130.1 -307.3,-235.7 -10.5,-11 -26.5,-14.7 -40.8,-9.4 -14.3,5.3 -24.1,18.5 -25,33.6 -4.2,73 -36.19,148.1 -87.83,206.1 -52.74,59.3 -120.97,96.9 -192.15,105.9 -10.36,1.3 -21.03,2 -31.72,2 -0.14,0 -0.29,0 -0.46,0 -66.51,0 -135.77,-26.3 -190.09,-72.1 -55.81,-46.9 -90.08,-108.3 -96.51,-172.8 -1.76,-17.1 -14.87,-31.1 -31.89,-33.8 -17.15,-2.8 -33.91,6.2 -41.02,21.9 -20.86,46.3 -52.67,88.2 -89.63,117.8 -39.19,31.5 -82.31,48.1 -124.75,48.1 h -3.6 c -32.13,-0.5 -67.07,-16.8 -93.4,-43.5 -25.73,-25.6 -41.51,-59.7 -41.19,-89 0.04,-14.7 3.53,-28 10.66,-40.7 8.92,-15.6 5.56,-35.7 -7.98,-47.6 -13.6,-11.9 -33.89,-12.7 -48.31,-1.8 -70.6,53.4 -158.64,82.8 -247.92,82.8 -0.12,0 -0.24,0 -0.34,0 -10.96,0 -21.83,-0.4 -32.33,-1.3 -20.71,-1.6 -39.48,14 -41.24,35 -0.83,10.2 2.36,20.1 8.97,27.9 6.6,7.8 15.86,12.6 26.04,13.4 12.59,1 25.55,1.5 38.56,1.5 72.08,0 145.24,-16.8 211.59,-48.5 1.76,-0.8 3.85,-0.8 5.61,0.2 1.75,0.9 2.94,2.6 3.24,4.5 6.43,43 27.89,84.7 60.37,117.5 41.09,41.2 92.88,64.7 145.76,66 l 5.58,0.1 c 60.25,0 119.95,-22.5 172.65,-65 19.58,-15.8 38.07,-34.6 56.54,-57.6 1.34,-1.7 3.65,-2.6 5.6,-2.3 2.15,0.2 4,1.6 4.92,3.5 21.56,46 54.35,88.2 94.79,122.2 69.01,58 154.18,90 239.78,90.1 13.93,0 27.84,-0.9 41.36,-2.6 89.65,-11.5 174.77,-58 239.69,-131 41.85,-47.2 73.35,-103.8 91.05,-163.9 0.6,-2.1 2.3,-3.7 4.5,-4.2 2.2,-0.6 4.4,0 5.9,1.6 72.9,73 162.9,153 277,193.3 41,14.3 84.5,21.6 129.4,21.6 56.8,0 111.5,-12.1 158.3,-34.9 52,-25.4 93,-63.9 118.7,-111.4 4.8,-9 5.9,-19.3 3,-29.1 -2.9,-9.8 -9.5,-17.9 -18.5,-22.8 -9,-4.8 -19.3,-6 -29.1,-3 -9.8,3 -17.9,9.5 -22.7,18.5 -18.3,33.7 -46.9,60.3 -85,79.1 -36.3,17.8 -79.3,27.2 -124.5,27.2 z m 962.1,-1285.1 c -1.5,1.2 -3.3,1.8 -5.2,1.4 -329,-60.3 -642.1,98.7 -778.9,395.7 -156.8,340.4 -17.7,745.7 316.7,922.8 2.3,1.2 3.6,3.7 3.3,6.3 -0.4,2.5 -2.3,4.6 -4.8,5.2 -69.7,16.5 -415.2,121.3 -373.4,565.7 31.2,331 390,759.8 788.9,795.7 1.7,0.2 3.2,1 4.3,2.3 1,1.4 1.5,3 1.3,4.7 -2.7,23.3 -4.5,46 -4.9,67.4 -0.1,1.6 -0.7,3.1 -1.8,4.2 -24.4,25.1 -47.3,47 -70.1,66.9 -247.7,216.2 -556.7,253.4 -843.6,106.9 101.5,92.6 164,216.6 168.3,341.4 3.6,106.9 -32.4,263.2 -225.1,401.3 -323.8,232 -675.39,-96 -753.56,-176.3 12.67,60.4 38.81,225.4 -29.13,314.5 -28.65,37.6 -70.75,57.1 -125.17,57.8 -207.69,2.4 -284.79,-263 -303.67,-346.5 -35.69,112.4 -211.36,582.2 -682.17,705.5 -247.6,64.8 -457.98,-34.8 -590.86,-129.7 -230.26,-164.5 -403.22,-442.6 -420.61,-676.5 -31.89,-428.5 281.75,-542.7 378.65,-567.6 -104.84,-61.3 -193.74,-150 -257.75,-257.3 -1.12,-1.9 -1.17,-4.2 -0.12,-6.2 1.07,-1.9 3.06,-3.2 5.28,-3.2 398.64,-12.5 753.62,-242.1 904.36,-584.9 1,-2.3 3.24,-3.8 5.7,-3.8 0.07,0 0.15,0 0.24,0 2.56,0.1 4.8,1.8 5.63,4.2 23.17,65.8 80.46,125 153.23,158.3 87.46,40.1 185.56,46 278.54,48.6 2.46,0.1 4.63,1.6 5.58,3.9 0.95,2.2 0.48,4.8 -1.17,6.6 -84.07,91 -179.37,194.1 -219.59,320.4 -37.49,117.6 -16.51,274.2 96.1,345.9 85.78,54.7 209.75,41.2 288.26,-31.4 74.33,-68.6 104.75,-184.3 75.71,-287.9 -0.92,-3.3 0.98,-6.7 4.24,-7.6 3.32,-1 6.73,0.8 7.73,4.1 28.54,94.2 82.45,178.7 155.93,244.3 40.43,36.1 75.29,53 109.67,53 0.12,0 0.24,0 0.36,0 78.64,-0.4 128.92,-90.2 136.32,-174.5 7.36,-84.2 -9.96,-169.5 -48.77,-240.1 -1.6,-2.9 -0.63,-6.6 2.2,-8.3 2.87,-1.8 6.55,-1 8.4,1.8 76.27,111.1 176,191.7 273.67,221.2 71.98,21.8 158.97,7.8 221.47,-35.5 46.2,-32 73.4,-76.9 76.7,-126.3 5.8,-89 -63.4,-163.8 -105.1,-200.5 -22.4,-19.8 -46.8,-38.3 -70.4,-56.1 -39.55,-29.9 -80.43,-60.9 -113.81,-98.9 -1.87,-2.2 -2.04,-5.4 -0.39,-7.7 1.69,-2.4 4.7,-3.3 7.36,-2.2 135.14,52.9 280.44,44.7 388.84,-22 119,-73.3 181.3,-221.2 144.9,-344 -17.3,-58.4 -56.6,-115.2 -113.6,-164.2 -88.6,-76.2 -198,-115 -300.2,-106.7 -113.14,9.4 -214.58,80.6 -252.38,177.2 -0.91,2.3 -3.1,3.9 -5.59,4 -2.09,-0.1 -4.77,-1.4 -5.84,-3.6 -34.76,-73 -74.16,-155.8 -145.07,-205.4 -66.24,-46.3 -174.2,-51.2 -223.33,15.8 -30.92,42.2 -32.62,107.1 -4.3,165.4 26.17,53.8 70.6,95.7 113.57,136.2 2.41,2.3 2.61,6.1 0.44,8.6 -2.12,2.5 -5.92,2.9 -8.57,0.9 -182.76,-142.7 -435.83,-195.7 -660.47,-138.5 -77,19.7 -150.76,59.3 -202.38,108.9 -1.88,1.9 -4.85,2.3 -7.16,1.1 -2.36,-1.3 -3.71,-3.8 -3.32,-6.5 l 0.93,-5.4 c 30.89,-217.9 -0.07,-428.3 -92.03,-625.2 -41.9,-2.3 -81.15,-7.2 -119.86,-14.9 -250.96,-50.1 -396.61,-231.7 -474.59,-375.2 -135.08,-248.6 -168.91,-574.4 -82.26,-792.3 21.14,-53.1 46.62,-100.4 77.9,-144.8 1.17,-1.6 3.07,-2.6 5.09,-2.6 h 1360.66 c 2.12,0 4.09,1.1 5.24,2.8 1.14,1.8 1.31,4 0.46,6 -40.37,90.2 -39.29,181.4 2.92,250.1 53.28,86.7 170.52,128.9 272.94,97.9 96.88,-29.2 174.86,-119.9 194.01,-225.8 0.58,-3.3 3.62,-5.6 7.18,-5 3.36,0.6 5.65,3.8 5.11,7.1 -15.51,97.3 -3.97,196.8 33.38,287.9 20.64,50.4 44.73,80.8 75.76,95.8 70.84,34.1 155.36,-24.6 198.86,-97.3 43.5,-72.5 65.2,-156.7 61.2,-237.2 -0.1,-3.3 2.4,-6.2 5.7,-6.5 3.4,-0.4 6.3,2 6.7,5.3 20,133.2 74.4,249.4 149.3,318.7 55.2,51 139.4,76.7 214.8,64.9 55.5,-8.6 99.6,-37 124.1,-80 44.1,-77.4 14.8,-175 -6.7,-226.3 -11.6,-27.6 -25.4,-54.9 -38.9,-81.3 -22.4,-44.2 -45.6,-89.9 -59,-138.7 -0.7,-2.8 0.5,-5.7 3,-7.1 2.6,-1.4 5.7,-0.9 7.6,1.2 98.3,106.8 233.2,163.1 359.2,150.4 109.7,-11 213.6,-83 258.8,-179.3 1.1,-2.2 3.3,-3.6 5.7,-3.6 h 278 c 1.9,0 3.7,0.8 4.9,2.3 1.1,1.4 1.6,3.3 1.2,5.2 -11.9,58.9 -16.9,116.7 -14.8,171.7 0.1,1.9 -0.7,3.8 -2.1,5"
         style="fill:#fde3ac;fill-opacity:1;fill-rule:nonzero;stroke:none"
         transform="matrix(0.13333333,0,0,-0.13333333,0,2829.3333)" />
      <path
         id="path3"
         d="m 11608.1,15284.6 c 7.8,84.6 74.1,165.9 169,207.2 88.3,38.4 186.4,42.4 279.5,43.2 2.4,0 4.6,1.4 5.6,3.7 1,2.2 0.6,4.8 -1,6.6 -82.3,92.6 -175.6,197.5 -213.3,324.6 -35.2,118.4 -11.2,274.5 102.8,344 86.8,52.9 210.5,37.1 287.6,-37 73,-70 101.1,-186.3 70,-289.3 -0.9,-3.3 0.9,-6.7 4.2,-7.7 3,-1.1 6.7,0.7 7.8,4 30.4,93.7 85.9,177.1 160.6,241.1 40.4,34.7 74.9,50.9 108.7,50.9 0.8,0 1.6,0 2.4,-0.1 78.6,-1.8 127.2,-92.6 132.9,-177.1 5.7,-84.3 -13.3,-169.2 -53.5,-239 -1.6,-2.9 -0.8,-6.6 2.1,-8.4 2.7,-1.8 6.4,-1.1 8.4,1.6 78.4,109.6 179.7,188.3 277.9,215.9 72.4,20.3 159.1,4.7 220.8,-39.8 45.5,-33 71.9,-78.3 74.2,-127.8 4,-89.1 -66.6,-162.6 -109,-198.5 -22.8,-19.3 -47.6,-37.3 -71.6,-54.7 -40.1,-29.1 -81.5,-59.3 -115.6,-96.7 -1.9,-2.1 -2.2,-5.2 -0.6,-7.6 1.6,-2.4 4.8,-3.4 7.3,-2.4 136.2,50.3 281.3,39.2 388.4,-29.5 117.5,-75.7 176.9,-224.7 138.1,-346.8 -18.4,-58.1 -58.8,-114.1 -116.8,-162 -90.1,-74.4 -200.2,-111.1 -302.1,-100.7 -113,11.5 -213,84.7 -248.9,182.1 -0.9,2.3 -3.1,3.9 -5.5,4 -2.5,-0.1 -4.9,-1.2 -5.9,-3.4 -36.3,-72.4 -77.3,-154.4 -149.1,-202.6 -67.1,-45 -175.2,-47.7 -223,20.2 -30.1,42.8 -30.5,107.7 -1,165.4 27.2,53.4 74.4,96.2 116.2,134 2.4,2.3 2.7,6 0.6,8.6 -1.3,1.5 -3,2.3 -4.8,2.3 -1.4,0 -2.7,-0.4 -3.8,-1.3 -185.5,-139 -439.5,-187.2 -663,-125.5 -147.4,40.6 -289.6,156.2 -276.6,298.5 z m 3428.6,2287.8 c -201.9,243.2 -387.1,332.1 -603.2,284.2 122.5,68.2 213.1,177.3 244.9,300.5 26.8,103.4 25.6,263.9 -132.6,440.6 -265.6,296.9 -680.1,52.9 -773.8,-8.6 25.5,56.2 86.8,211.6 39.8,313.4 -19.8,42.9 -56.6,71.1 -109.6,83.6 -202.1,48.1 -335.2,-194.9 -371.6,-272.4 -10.5,117.5 -80,614.3 -512.8,836.8 -227.8,117 -454.6,65.5 -605,1.7 -260.4,-110.6 -489.6,-344.6 -557.4,-569 -124.2,-411.4 157.2,-591 246.4,-636.3 -305.8,-97.7 -512.9,-384.4 -505.6,-702.8 0.5,-19.8 1.9,-40.7 4.3,-62.2 -190,-19 -381,-123.2 -538.5,-293.8 -144.3,-156.3 -239.8,-347.9 -255.3,-512.7 -40.2,-427.8 271,-548.1 367.5,-574.9 -330.1,-183.9 -465.6,-589.8 -308.3,-931.4 138.2,-300 453.1,-461.7 784.9,-404.1 -1.4,-53.7 3.8,-109.9 15.4,-167 0.5,-2.9 3.1,-5 6,-5 h 2889.5 c 1.7,0 3.3,0.7 4.5,1.9 118.5,123.7 199.3,258 240.3,399 34.8,119.5 39.9,241 15.3,361 -38.6,187.3 -146.4,362.5 -320.5,520.5 -99.8,90.5 -187.8,156.9 -269.1,203 -53,94.4 -114,236.6 -105.7,381.4 0.1,2.1 -0.8,4.1 -2.5,5.3 -1.5,1.3 -3.7,1.6 -5.7,1 -50.6,-16.1 -101.6,-22.9 -151.3,-20.2 -1.5,0 -3.5,-0.5 -4.8,-1.7 -1.2,-1.3 -1.9,-3 -1.8,-4.7 l 0.3,-8.6 c 0.7,-19.3 1.3,-38.5 2.5,-56.8 3.7,-64.5 12.8,-109.8 28.7,-142.6 12.9,-26.6 28.9,-45.2 51.9,-60.3 8.6,-5.5 14.5,-14.1 16.6,-24.1 2.1,-10 0.2,-20.2 -5.4,-28.8 -5.5,-8.5 -14.1,-14.4 -24.1,-16.6 -10,-2.2 -20.1,-0.2 -28.8,5.4 -33.8,21.8 -61.2,53.4 -79.1,91.4 -15,31.3 -24.7,67 -30.8,112.4 -5.3,41.4 -6.9,83.6 -8.3,124.4 -1.3,36.1 -2.6,70.1 -6.3,101.5 -10.3,89.2 -50.7,177.9 -113.6,249.7 -62.8,71.9 -145.3,123.6 -232.4,145.7 -34.6,8.8 -70.7,13.2 -107.4,13.2 -0.2,0 -0.4,0 -0.6,0 -46.1,0 -94,-7.7 -142.9,-23.1 -44.8,-16.7 -90.7,-39.5 -136.8,-68 -42.7,-30.5 -78,-65.5 -105.1,-104 l -110.5,-156.5 42,186.9 c 3,13.9 4.6,28.3 4.6,42.8 0,39.3 -11.6,80.3 -32.2,112.7 -21.3,33.6 -50.2,57 -83.7,67.6 -10.5,3.3 -21.9,4.9 -33,4.8 -31.8,0 -67.5,-14.1 -93.3,-36.8 -26.4,-23.1 -41.4,-52.5 -41.2,-80.7 0,-5.1 0.4,-10.1 1.4,-15.4 l 36.2,-195.6 -106.2,168.2 c -192.7,305.6 -504.4,530.5 -855.1,617.1 -10,2.5 -18.3,8.6 -23.6,17.4 -5.3,8.7 -6.8,19 -4.4,28.9 2.5,9.9 8.6,18.3 17.4,23.6 8.7,5.3 19,6.8 28.9,4.4 283.5,-70.2 549.4,-230.2 748.7,-450.4 2,-2.2 5.3,-2.7 7.8,-1.2 2.6,1.5 3.7,4.6 2.8,7.4 -14.7,43.8 -15.9,86.9 -3.5,128.1 24.3,81.4 105.4,148 206.6,169.7 94.1,20.1 191.1,4.6 282.5,-13.1 2.4,-0.5 4.8,0.5 6.2,2.5 1.4,2 1.6,4.7 0.4,6.8 -62.4,107 -133.1,228.4 -144.9,360.4 -11.1,122.9 43.4,271.2 169,316.8 95.4,34.7 213.6,-5.3 274.5,-93.2 57.7,-83.2 62.2,-202.7 11.4,-297.5 -1.6,-3 -0.5,-6.7 2.4,-8.4 3.1,-1.7 6.8,-0.5 8.5,2.4 48.4,85.8 119.4,156.6 205.2,204.6 47.5,26.6 85.2,35.5 119,27.8 76.7,-17.4 106.3,-116 95.2,-199.9 -11.1,-83.8 -46.5,-163.3 -99.8,-223.8 -2.2,-2.4 -2,-6.2 0.4,-8.6 2.4,-2.2 6.2,-2.3 8.6,0 98.5,91.8 213.4,148.9 315.2,156.5 75.1,5.6 156.9,-26.9 208.5,-82.7 38.1,-41.3 54.9,-91 47.4,-140 -13.7,-88.1 -97.4,-146.1 -146.2,-172.9 -26.1,-14.4 -54,-27.1 -80.9,-39.5 -45.1,-20.6 -91.7,-41.9 -132.5,-71.8 -2.3,-1.7 -3.2,-4.8 -2.1,-7.5 1.1,-2.6 3.6,-4.3 6.7,-3.7 143.6,22.4 283.5,-17.2 374.8,-105.9 45.3,-43.9 77.8,-103.7 91.8,-168.2 0.5,-2 1.8,-3.6 3.6,-4.4 1.8,-0.8 3.8,-0.7 5.6,0.3 113,64.6 233,77.8 347.2,37.8 122.5,-42.9 228.5,-145.7 287.3,-277.3 3.1,-7.5 6.2,-14.9 9.4,-22.3 1.4,-3.2 4.9,-4.7 8.1,-3.3 3.2,1.3 4.7,4.9 3.4,8 -3,7.6 -6.1,15.1 -9.4,22.5 -132.2,324.9 -54.3,647.9 210.9,867.9 1.3,1 2,2.6 2.2,4.2 0.2,1.7 -0.4,3.3 -1.4,4.6"
         style="fill:#fbc384;fill-opacity:1;fill-rule:nonzero;stroke:none"
         transform="matrix(0.13333333,0,0,-0.13333333,0,2829.3333)" />
      <path
         id="path4"
         d="m 14429.4,3045.9 c -32.9,-21.2 -69,-42.7 -110.3,-65.8 -2.1,-1.2 -4.2,-2.3 -6.4,-3.5 l -4.6,-2.5 c -28.3,-15.6 -57.3,-30.8 -86.4,-45.3 -4,-2.1 -8.2,-4.1 -12.3,-6.1 l -3.1,-1.6 c -29.5,-14.4 -59.9,-28.7 -90.6,-42.5 l -15.3,-6.9 c -32.2,-14.3 -66.4,-28.7 -101.4,-42.9 l -9.5,-3.9 c -154,-61.7 -328,-119.3 -517.2,-171 -0.2,0 -0.4,-0.1 -0.6,-0.1 -370.3,-101.2 -794.5,-180.2 -1261,-234.7 l -2.1,-0.2 c -404,-47.1 -824,-73.9 -1248,-79.5 l -11.3,-0.2 c -62,-0.7 -127.2,-0.9 -193.3,-0.9 l -36.1,0.2 c -431.8,2.5 -848.75,27.2 -1240.08,73.5 -0.27,0.1 -0.53,0.1 -0.83,0.2 -436.76,51.8 -828.26,129.3 -1163.67,230.3 l -16.5,5.1 c -38.63,11.8 -76.29,23.9 -111.96,35.8 l -22.73,7.7 c -34.05,11.6 -68.23,23.8 -101.58,36.2 l -23.77,8.9 c -31.91,12.1 -64.44,25 -96.67,38.4 l -6.94,2.9 c -4.77,1.9 -9.55,3.9 -14.25,5.9 -31.86,13.5 -64.5,28 -97,43.1 l -14.06,6.4 c -117.54,55.6 -223.82,116.2 -315.93,180.3 -2.22,1.5 -5.09,1.5 -7.19,-0.1 -2.14,-1.5 -3.09,-4.2 -2.36,-6.8 46.48,-160.8 91.38,-283.5 133.42,-364.7 388.7,-749.8 1871.48,-1026.1 3129.5,-1034.6 20.5,-0.1 41,-0.2 61.7,-0.2 1466.6,0 3119.2,351.9 3484.9,1034.8 45.5,84.8 94.2,218.5 144.8,397.3 0.8,2.5 -0.2,5.2 -2.3,6.8 -2,1.5 -4.8,1.6 -7,0.2"
         style="fill:#e9e9e9;fill-opacity:1;fill-rule:nonzero;stroke:none"
         transform="matrix(0.13333333,0,0,-0.13333333,0,2829.3333)" />
      <path
         id="path5"
         d="m 14786,14174.9 c -1.2,1.3 -2.9,2 -4.7,2 h -1242.6 c -3.3,0 -6,-2.5 -6.2,-5.8 l -242.7,-4275 c 0,-1.3 0.3,-2.6 1,-3.7 278.6,-440.8 425.9,-949.8 425.9,-1472 0,-634.7 -210.1,-1231.6 -607.4,-1726.3 -0.8,-1 -1.3,-2.3 -1.4,-3.6 L 12870.8,2513 c -0.1,-1.9 0.7,-3.7 2.1,-5 1.2,-1 2.7,-1.6 4.2,-1.6 0.4,0 0.7,0.1 1.1,0.1 l 18.9,3.5 c 204.8,38.6 399.3,82.9 577.9,131.7 2.5,0.7 4.3,2.8 4.5,5.3 l 1308,11523 c 0.2,1.8 -0.3,3.5 -1.5,4.9"
         style="fill:#cf181f;fill-opacity:1;fill-rule:nonzero;stroke:none"
         transform="matrix(0.13333333,0,0,-0.13333333,0,2829.3333)" />
      <path
         id="path6"
         d="m 9458.33,10740.5 c 0.88,-0.5 1.86,-0.7 2.83,-0.7 1.17,0 2.37,0.3 3.39,1 320.77,206.8 673.65,342.4 1048.75,403 3.1,0.5 5.3,3.1 5.3,6.2 v 3020.7 c 0,3.4 -2.8,6.2 -6.3,6.2 H 9266.79 c -1.71,0 -3.36,-0.7 -4.53,-1.9 -1.17,-1.2 -1.81,-2.9 -1.71,-4.7 l 194.38,-3424.7 c 0.14,-2.2 1.43,-4.2 3.4,-5.1"
         style="fill:#cf181f;fill-opacity:1;fill-rule:nonzero;stroke:none"
         transform="matrix(0.13333333,0,0,-0.13333333,0,2829.3333)" />
      <path
         id="path7"
         d="m 11401.1,11143.8 c 375.1,-60.6 728,-196.3 1048.7,-403 1.1,-0.7 2.2,-1 3.4,-1 1,0 1.9,0.2 2.8,0.7 2,0.9 3.3,2.9 3.4,5.1 l 194.4,3424.7 c 0.1,1.8 -0.5,3.5 -1.7,4.7 -1.2,1.2 -2.8,1.9 -4.5,1.9 H 11402 c -3.4,0 -6.2,-2.8 -6.2,-6.2 V 11150 c 0,-3.1 2.2,-5.7 5.3,-6.2"
         style="fill:#cf181f;fill-opacity:1;fill-rule:nonzero;stroke:none"
         transform="matrix(0.13333333,0,0,-0.13333333,0,2829.3333)" />
      <path
         id="path8"
         d="m 16527.3,14174.9 c -1.1,1.3 -2.8,2 -4.6,2 h -845.9 c -3.2,0 -5.9,-2.3 -6.2,-5.5 L 14405.7,3028.3 c -0.3,-2.4 0.8,-4.7 2.9,-6 1,-0.6 2.1,-1 3.3,-1 1.1,0 2.3,0.4 3.3,1 l 20.9,13.1 c 156.9,101.4 271.9,210.6 341.9,324.6 652.7,1064.3 1573,9191.6 1750.9,10810 0.2,1.8 -0.3,3.6 -1.6,4.9"
         style="fill:#cf181f;fill-opacity:1;fill-rule:nonzero;stroke:none"
         transform="matrix(0.13333333,0,0,-0.13333333,0,2829.3333)" />
      <path
         id="path9"
         d="m 6237.59,14176.9 h -845.78 c -1.78,0 -3.46,-0.7 -4.65,-2 -1.17,-1.3 -1.73,-3.1 -1.54,-4.9 177.84,-1612.2 1098.13,-9710.2 1750.74,-10809.9 75.96,-128 193.87,-248.2 350.41,-357.1 l 15.56,-11.1 c 1.08,-0.7 2.34,-1.1 3.61,-1.1 1.09,0 2.19,0.3 3.16,0.8 2.12,1.3 3.32,3.7 3.03,6.1 L 6243.77,14171.4 c -0.34,3.2 -3.02,5.5 -6.18,5.5"
         style="fill:#cf181f;fill-opacity:1;fill-rule:nonzero;stroke:none"
         transform="matrix(0.13333333,0,0,-0.13333333,0,2829.3333)" />
      <path
         id="path10"
         d="m 8805.11,6694.1 c -397.37,494.6 -607.4,1091.6 -607.4,1726.3 0,522.3 147.25,1031.3 425.84,1472 0.71,1.1 1.05,2.4 0.98,3.7 l -242.61,4275 c -0.19,3.3 -2.92,5.8 -6.24,5.8 H 7133.01 c -1.78,0 -3.47,-0.7 -4.66,-2 -1.19,-1.4 -1.75,-3.1 -1.53,-4.9 L 8440.38,2597.7 c 0.3,-2.6 2.25,-4.8 4.88,-5.4 l 593.2,-129.2 c 0.44,-0.1 0.88,-0.1 1.31,-0.1 1.47,0 2.9,0.5 4.05,1.5 1.48,1.3 2.29,3.2 2.19,5.1 l -239.54,4220.9 c -0.07,1.3 -0.56,2.6 -1.36,3.6"
         style="fill:#cf181f;fill-opacity:1;fill-rule:nonzero;stroke:none"
         transform="matrix(0.13333333,0,0,-0.13333333,0,2829.3333)" />
      <path
         id="path11"
         d="m 7133.01,14176.9 h -895.42 c -1.78,0 -3.46,-0.7 -4.66,-2 -1.19,-1.4 -1.75,-3.1 -1.53,-4.9 L 7499.75,2996.3 c 0.2,-1.8 1.17,-3.4 2.68,-4.5 88.04,-59.8 189.7,-117.1 302.1,-170.1 l 14.12,-6.5 c 32.65,-15.2 65.41,-29.8 97.4,-43.3 4.75,-2 9.57,-4 14.37,-6 l 6.92,-2.8 c 32.06,-13.3 64.68,-26.3 97.01,-38.6 l 23.87,-8.9 c 33.44,-12.5 67.74,-24.7 101.9,-36.3 l 22.8,-7.8 c 35.76,-11.9 73.52,-24 112.28,-35.8 l 16.51,-5.1 c 45.14,-13.6 89.97,-26.5 133.23,-38.2 0.54,-0.1 1.09,-0.2 1.63,-0.2 1.47,0 2.93,0.5 4.07,1.5 1.56,1.3 2.36,3.4 2.12,5.4 L 7139.19,14171.4 c -0.34,3.2 -3.02,5.5 -6.18,5.5"
         style="fill:#ffffff;fill-opacity:1;fill-rule:nonzero;stroke:none"
         transform="matrix(0.13333333,0,0,-0.13333333,0,2829.3333)" />
      <path
         id="path12"
         d="m 10957.2,6158.2 c -1249.36,0 -2262.15,1012.8 -2262.15,2262.2 0,1249.3 1012.79,2262.1 2262.15,2262.1 1249.3,0 2262.1,-1012.8 2262.1,-2262.1 0,-1249.4 -1012.8,-2262.2 -2262.1,-2262.2 z m 2338.9,3737.5 242.6,4275 h -891.1 L 12453.2,10746 c -312.9,201.7 -668.7,342.1 -1051.2,404 v 3020.7 h -889.6 V 11150 c -382.5,-61.8 -738.37,-202.3 -1051.23,-404 l -194.37,3424.7 h -891.13 l 242.62,-4275 c -269.97,-427 -426.82,-932.7 -426.82,-1475.3 0,-655 228.19,-1256.4 608.76,-1730.3 l 239.55,-4220.9 c 142.1,-24.4 288.62,-45.4 438.49,-63.2 0.03,0 0.06,0 0.09,0 149.87,-17.8 303.08,-32.4 458.62,-43.7 l -203.04,3577.5 c 241.67,-119.4 503.16,-204.5 778.46,-249 V 2335 c 69,-1.5 138.2,-2.4 207.5,-2.8 12,0 24,-0.1 36,-0.1 64.5,-0.2 129,0.1 193.5,0.9 3.7,0.1 7.5,0.1 11.3,0.1 147.4,2.1 294.8,6.6 441.3,13.7 v 3344 c 275.2,44.5 536.8,129.6 778.4,249 l -201.5,-3551.6 c 77.4,7.5 154.3,15.6 230.5,24.5 0.7,0.1 1.4,0.2 2.1,0.3 229.6,26.8 452.7,60.1 665.6,99.7 l 237,4177.5 c 380.6,473.8 608.8,1075.2 608.8,1730.2 0,542.6 -156.9,1048.3 -426.8,1475.3"
         style="fill:#ffffff;fill-opacity:1;fill-rule:nonzero;stroke:none"
         transform="matrix(0.13333333,0,0,-0.13333333,0,2829.3333)" />
      <path
         id="path13"
         d="m 15676.8,14176.9 h -895.5 c -3.1,0 -5.8,-2.3 -6.2,-5.5 L 13467.2,2648.5 c -0.2,-1.8 0.4,-3.6 1.6,-4.9 1.1,-1.3 2.9,-2.1 4.7,-2.1 0.5,0 1.1,0.1 1.6,0.2 189.8,51.9 364.5,109.7 519.1,171.7 l 9.4,3.8 c 35.3,14.3 69.5,28.8 101.9,43.1 l 15.3,6.9 c 30.9,13.8 61.5,28.2 90.9,42.7 l 3.2,1.6 c 4.2,2 8.3,4.1 12.4,6.1 29.2,14.6 58.4,29.9 86.8,45.5 l 4.6,2.5 c 2.2,1.2 4.4,2.4 6.4,3.6 32.1,17.8 62.4,35.7 90.1,53.1 1.6,1 2.7,2.7 2.9,4.6 L 15683,14170 c 0.2,1.8 -0.4,3.5 -1.6,4.9 -1.2,1.3 -2.9,2 -4.6,2"
         style="fill:#ffffff;fill-opacity:1;fill-rule:nonzero;stroke:none"
         transform="matrix(0.13333333,0,0,-0.13333333,0,2829.3333)" />
      <path
         id="path14"
         d="m 15389.9,14705 c -72.4,28.5 -131.9,101.6 -155.1,190.9 v 0 c -24.2,93 -12.9,190.7 0.7,282.7 0.3,2.5 -0.7,4.9 -2.8,6.2 -2.1,1.3 -4.7,1.3 -6.7,0 -104.3,-66.9 -222.5,-142.8 -353.8,-160.4 -99.4,-13.4 -201.8,15.7 -267.5,75.9 -1.5,1.4 -3.8,2 -5.9,1.3 -2,-0.5 -3.7,-2.2 -4.3,-4.2 -40.4,-139.1 -120.3,-271.6 -237.3,-393.9 -1.7,-1.8 -2.2,-4.4 -1.3,-6.7 1,-2.3 3.3,-3.8 5.8,-3.8 h 1025.9 c 3,0 5.6,2.1 6.1,5.1 0.6,2.9 -1,5.8 -3.8,6.9"
         style="fill:#fde3ac;fill-opacity:1;fill-rule:nonzero;stroke:none"
         transform="matrix(0.13333333,0,0,-0.13333333,0,2829.3333)" />
      <path
         id="path15"
         d="m 16751.3,15745 c -60.3,118.4 -158,217 -275.7,278.3 314.1,422.8 351.6,940.7 97.3,1353.4 -145.7,236.6 -379.7,393.3 -659,441.3 -305.5,52.4 -624.8,-33.7 -876.2,-236.3 -1.9,-1.5 -3.7,-3.1 -5.4,-4.7 -1.4,-1.3 -2.9,-2.6 -4.4,-3.8 -248.2,-206 -335.1,-500.7 -242.3,-804 -62.8,99.2 -153.5,175 -255.3,210.6 -117.6,41.2 -241.3,27.8 -357.5,-38.7 -45.2,-25.8 -88.5,-58.8 -128.7,-98.1 -80.1,-78.3 -123.9,-173.3 -130.1,-282.5 -8.5,-148.6 54.2,-293.9 108.2,-389.7 0.5,-1 1.4,-1.9 2.3,-2.4 81,-45.7 168.8,-111.8 268.4,-202.2 172.1,-156.3 278.7,-329.1 316.7,-513.9 0.4,-2.1 2,-3.9 4.1,-4.6 2,-0.7 4.4,-0.3 6,1.2 1.5,1.2 2.9,2.6 4.4,4 1.7,1.6 3.4,3.3 5.3,4.8 80.6,61.2 199.9,71 296.7,24.3 3,-1.5 6.7,-0.2 8.3,2.9 1.5,3 0.3,6.8 -2.8,8.3 -87.7,44.5 -161.5,112.4 -213.3,196.1 -28.6,46.3 -39.1,83.6 -33,117.6 14,77.4 110.5,111.4 195.6,103.9 84.2,-7.5 165.1,-39.4 227.9,-89.9 2.5,-2.1 6.3,-1.8 8.6,0.7 2.1,2.5 2,6.3 -0.3,8.6 -96.2,94.4 -158.2,206.7 -170.3,308 -8.8,74.8 20.1,158 73.6,212 39.6,39.9 88.8,58.9 137.7,53.4 88.7,-9.8 150.3,-90.9 179.2,-138.4 15.5,-25.5 29.5,-52.7 43,-79.1 22.5,-44.1 45.9,-89.8 77.6,-129.3 1.8,-2.2 5,-3 7.5,-1.7 2.6,1.2 4,4.1 3.4,6.9 -28.5,142.2 4.8,283.9 89.4,379 92.9,104.4 249.3,140 364,82.8 54.5,-27.3 103.6,-75.9 141.9,-140.5 59.6,-100.6 78.8,-215.1 52.7,-314.1 -28.9,-109.8 -116.7,-197.3 -218.5,-217.7 -2.4,-0.5 -4.3,-2.4 -4.8,-4.8 -0.6,-2.5 0.4,-5 2.5,-6.4 65.8,-47 140.5,-100.2 177,-178.7 34,-73.2 20,-180.4 -54.6,-217.1 -46.8,-23.2 -111,-13.5 -163.5,24.6 -48.3,35.1 -81.9,86.1 -114.4,135.5 -1.8,2.8 -5.5,3.7 -8.3,2 -2.9,-1.7 -3.9,-5.4 -2.4,-8.3 108.6,-204.9 116.8,-463.3 21.3,-674.5 -46.9,-103.6 -128.4,-187.4 -212.7,-218.7 -2.9,-1.1 -4.5,-4 -4,-7 0.5,-2.9 3.1,-5.1 6.1,-5.1 h 971 c 1.5,0 3,0.6 4.1,1.6 76.5,68.7 139.6,147.4 187.4,234 149,269.7 167.5,582.5 48.3,816.4"
         style="fill:#fde3ac;fill-opacity:1;fill-rule:nonzero;stroke:none"
         transform="matrix(0.13333333,0,0,-0.13333333,0,2829.3333)" />
      <path
         id="path16"
         d="m 8643.75,16653 -0.42,2.2 c -12.47,84.6 -36.12,166.8 -70.28,244.5 -152.64,347.2 -511.96,579.7 -915.37,592.3 -113.54,3.6 -227.58,-10 -338.61,-40.4 -317.27,-86.7 -519.27,-323.5 -555.96,-643.5 -20.94,135.8 -89.64,256.4 -191.2,329.1 -86.94,62.2 -237.1,118.8 -458.91,34.7 -372.44,-141.2 -293.76,-615.7 -270.08,-725.3 -41.99,42.7 -158.76,150.2 -267.77,150.2 -3.44,0 -6.92,-0.1 -10.35,-0.3 -47.17,-3.1 -86.67,-27.4 -117.4,-72.3 -117.66,-171.9 61.42,-382.8 120.54,-444.7 -113.37,32.4 -601.9,146.2 -965.12,-177.8 -191.01,-170.3 -224.5,-400.7 -218.99,-563.9 9.57,-282.8 145.53,-580.8 330.64,-724.6 113.3,-88.1 229.96,-132.6 347.38,-132.6 11.57,0 23.14,0.4 34.71,1.3 2.78,0.2 5.1,2.2 5.66,4.9 24.62,119.5 130.93,206.2 252.74,206.2 h 1107.4 c 2.32,0 4.46,1.3 5.53,3.3 1.07,2.1 0.93,4.6 -0.39,6.5 -38.03,55 -53.62,132.8 -41.7,208.2 14.95,95 64.36,180 113.66,258.9 1.29,2.1 1.27,4.8 -0.1,6.8 -1.34,2 -3.6,3 -6.18,2.7 -122.27,-19.7 -260.88,-41.9 -388.39,-5.6 -118.7,33.9 -237.51,138 -234.88,271.5 2,101.8 81.81,197.5 185.63,222.7 98.42,24 211.55,-14.8 281.7,-96.2 2.24,-2.7 6.14,-3 8.75,-0.8 2.61,2.3 2.97,6.2 0.78,8.8 -62.66,75.9 -103.14,167.5 -117.13,265 -7.72,53.9 -2.41,92.4 16.79,121 43.78,65.3 146.43,57.5 220.75,17 74.2,-40.5 135.64,-102.1 172.99,-173.5 1.56,-2.9 5.21,-4.1 8.13,-2.8 3.02,1.4 4.41,4.9 3.17,8 -50.35,125 -62.32,252.7 -32.86,350.4 21.75,72 81.49,136.7 152.2,164.8 52.21,20.8 104.66,18.6 147.6,-6 77.33,-44.5 101.42,-143.4 108.87,-198.5 4.04,-29.7 5.92,-60.3 7.75,-89.8 3.04,-49.5 6.19,-100.6 19.44,-149.5 0.72,-2.7 3.21,-4.5 6.01,-4.5 0.05,0 0.1,0 0.17,0 2.88,0 5.32,2.1 5.92,4.9 30.67,141.8 117.96,258.3 233.45,311.6 126.99,58.6 284.63,28.6 366.77,-69.7 39.07,-46.7 64.61,-110.8 73.86,-185.5 14.43,-116 -13.74,-228.6 -77.27,-308.9 -70.42,-89.1 -185.82,-134.3 -287.31,-112.2 -2.36,0.5 -4.92,-0.5 -6.38,-2.5 -1.46,-2 -1.56,-4.7 -0.29,-6.8 41.61,-69.4 88.74,-148 90.84,-234.5 1.92,-80.8 -53.76,-173.4 -136.79,-177.3 -52.32,-2.8 -107.25,32.1 -140.09,88 -30.38,51.6 -41.12,114.4 -50.63,169.9 -0.53,3.3 -3.65,5.6 -6.89,5.2 -3.31,-0.4 -5.72,-3.4 -5.45,-6.7 17.63,-231.2 -78.25,-471.3 -250.23,-626.7 -8.97,-8.1 -19.32,-16.6 -31.7,-26 -2.12,-1.6 -2.99,-4.4 -2.14,-7 0.87,-2.5 3.24,-4.2 5.92,-4.2 h 1063.94 c 2.34,0 4.46,1.3 5.53,3.4 1.07,2 0.9,4.5 -0.44,6.4 -30.72,43.5 -55.73,90.1 -76.49,142.3 -85.38,214.6 -51.79,536.1 81.64,781.7 76.71,141.1 219.82,319.7 466.06,368.8 39.27,7.9 79.12,12.7 121.8,14.9 2.29,0.1 4.34,1.5 5.34,3.6 94.22,200.1 126.06,414 94.66,635.7 -0.15,1 -0.34,2.1 -0.53,3.2"
         style="fill:#fbc384;fill-opacity:1;fill-rule:nonzero;stroke:none"
         transform="matrix(0.13333333,0,0,-0.13333333,0,2829.3333)" />
      <path
         id="path17"
         d="m 12498,17156.2 c -27.7,-15 -53.6,-36.3 -76.9,-63.1 -2,-2.2 -2.1,-5.5 -0.3,-7.8 2.6,-3.4 5.1,-6.8 7.6,-10.3 1.2,-1.6 3,-2.5 5,-2.5 0.1,0 0.3,0 0.4,0 2.1,0.1 4,1.3 5,3.1 11.9,20.9 26.6,39 43.6,53.8 6,5.2 12.5,9.7 19.5,14.4 l 2.5,1.7 c 2.8,1.9 3.6,5.6 1.8,8.4 -1.7,2.8 -5.4,3.8 -8.2,2.3"
         style="fill:#fbc384;fill-opacity:1;fill-rule:nonzero;stroke:none"
         transform="matrix(0.13333333,0,0,-0.13333333,0,2829.3333)" />
      <path
         id="path18"
         d="m 12177.7,5945.4 c -245.4,-121.2 -506.7,-204.8 -776.6,-248.5 -3.1,-0.5 -5.3,-3.1 -5.3,-6.1 v -3344 c 0,-1.7 0.7,-3.3 1.9,-4.5 1.2,-1.1 2.7,-1.7 4.3,-1.7 0.1,0 0.2,0 0.3,0 l 27.9,1.3 c 177.8,9 355.7,21.9 528.8,38.2 l 20.4,1.9 c 3.1,0.3 5.5,2.8 5.7,5.8 l 201.6,3551.6 c 0.1,2.2 -0.9,4.3 -2.8,5.6 -1.9,1.2 -4.2,1.3 -6.2,0.4"
         style="fill:#cf181f;fill-opacity:1;fill-rule:nonzero;stroke:none"
         transform="matrix(0.13333333,0,0,-0.13333333,0,2829.3333)" />
      <path
         id="path19"
         d="m 10513.3,5696.9 c -270,43.7 -531.29,127.3 -776.62,248.5 -1.95,0.9 -4.36,0.8 -6.19,-0.4 -1.85,-1.3 -2.92,-3.4 -2.8,-5.6 L 9930.73,2362 c 0.2,-3.1 2.66,-5.7 5.8,-5.9 l 33.69,-2.4 c 162.28,-11.3 329.58,-19.3 497.08,-23.7 l 44.9,-1.2 h 0.1 c 1.7,0 3.2,0.6 4.4,1.7 1.2,1.2 1.9,2.8 1.9,4.5 v 3355.8 c 0,3 -2.2,5.6 -5.3,6.1"
         style="fill:#cf181f;fill-opacity:1;fill-rule:nonzero;stroke:none"
         transform="matrix(0.13333333,0,0,-0.13333333,0,2829.3333)" />
      <path
         id="path20"
         d="m 10957.2,10688.8 c -1250.8,0 -2268.39,-1017.6 -2268.39,-2268.4 0,-1250.8 1017.59,-2268.4 2268.39,-2268.4 1250.8,0 2268.4,1017.6 2268.4,2268.4 0,1250.8 -1017.6,2268.4 -2268.4,2268.4"
         style="fill:#cf181f;fill-opacity:1;fill-rule:nonzero;stroke:none"
         transform="matrix(0.13333333,0,0,-0.13333333,0,2829.3333)" />
      <path
         id="path21"
         d="m 9056.95,16913.1 c 60.41,65.5 152.69,98.1 240.95,85.6 2.53,-0.4 5.24,1 6.45,3.4 1.2,2.4 0.74,5.3 -1.17,7.2 -39.41,39.6 -84.12,84.5 -100.48,141.7 -19.03,66.5 -9.04,83.7 -1.37,88.1 34.55,19.5 162.51,-94.5 235.11,-171.2 1.29,-1.3 3.23,-2 5.02,-1.9 1.9,0.2 3.6,1.2 4.65,2.7 1.04,1.5 104.43,151.2 221.34,171.4 39.66,6.8 76.76,-2.1 110.33,-26.5 5.38,-3.9 7.96,-9 8.06,-15.8 0.36,-23.6 -29.6,-86.8 -232.33,-245.6 -2.8,-2.1 -5.58,-4.2 -8.33,-6.5 -2.66,-2.1 -3.09,-6 -0.95,-8.7 2.1,-2.7 6.02,-3.1 8.7,-1 2.58,2 5.18,4 7.79,6.1 49.48,37.1 105.46,51.4 151.04,38.5 29.23,-8.2 55.27,-31.6 67.96,-61 10.21,-23.6 10.14,-47.6 -0.22,-67.6 -17.31,-33.4 -56.24,-47.5 -86.94,-49.7 -36.25,-2.2 -72.2,7.6 -106.99,17.3 -2.92,0.8 -5.89,-0.5 -7.26,-3.2 -1.34,-2.6 -0.61,-5.9 1.76,-7.7 8.86,-6.9 11.54,-16.8 12.25,-23.9 1.32,-13.1 -3.17,-27.4 -11.69,-37.2 -13.4,-15.5 -35.03,-25 -66.17,-29.1 -24.09,-3.1 -68.42,-4.3 -95.83,22.6 -12.48,12.2 -18.64,32.8 -15.35,51.2 1.76,9.8 5.92,17.8 12.06,23.5 3.41,2.2 6.8,4.4 10.16,6.7 2.68,1.8 3.53,5.3 1.97,8.2 -1.56,2.8 -4.99,3.9 -8.01,2.6 -4.39,-1.9 -8.33,-4.5 -11.84,-7.6 -79.03,-49.9 -173.13,-74.5 -266.53,-69.8 -48.89,2.5 -109.33,22.5 -118.73,70.5 -6.92,35.4 18.71,69.6 34.59,86.7 z m -424.1,-263.3 c 53.11,-51 128.9,-91.8 207.95,-112 204.09,-52 431.15,-14.5 609.74,97.6 -24.41,-26 -47.04,-54.8 -62.85,-87.3 -30.33,-62.3 -28.18,-132.3 5.46,-178.2 28.23,-38.5 74.05,-55.3 121.49,-55.3 42.19,0 85.65,13.3 119.04,36.7 69.33,48.5 110.53,129.4 143.19,197.7 43.17,-94.3 144.8,-162.8 257.53,-172.1 105.5,-8.6 218.2,31.2 309.3,109.6 58.8,50.6 99.5,109.4 117.4,170.1 38,128 -26.6,282 -150.3,358.2 -105.1,64.7 -243.6,76.1 -375.19,31.9 28.87,28.9 61.97,54 94.19,78.4 23.8,18 48.4,36.6 71.2,56.6 43.4,38.2 115.4,116.4 109.2,210.7 -3.5,53.3 -32.6,101.5 -81.9,135.8 -65.6,45.4 -156.71,60 -232.28,37.2 -85.87,-26 -173.08,-90.1 -245.23,-179.1 22.48,60.4 31.57,127.3 25.77,193.6 -7.87,89.8 -62.68,185.5 -148.7,185.8 -0.14,0 -0.27,0 -0.41,0 -37.62,0 -75.13,-17.8 -117.98,-56.1 -58.76,-52.5 -105.31,-116.7 -136.78,-188.3 5.09,88.7 -27.73,177.7 -90.04,235.3 -82.61,76.2 -213.04,90.3 -303.44,32.7 -117.92,-75.1 -140.21,-238 -101.29,-360.2 39.59,-124.2 130.45,-225.5 213.04,-315 -90.19,-2.9 -184.46,-10.2 -269.73,-49.3 -75.78,-34.8 -135.49,-96.7 -159.75,-165.5 -0.54,-1.5 -0.49,-3.2 0.17,-4.6 33.69,-76.7 57.03,-157.8 69.35,-241.3 0.2,-1.4 0.86,-2.6 1.85,-3.6"
         style="fill:#f6a257;fill-opacity:1;fill-rule:nonzero;stroke:none"
         transform="matrix(0.13333333,0,0,-0.13333333,0,2829.3333)" />
      <path
         id="path22"
         d="m 13727.3,17224.2 c 34.5,21.9 72.2,39.2 109,56 27.1,12.4 55.2,25.2 81.8,39.9 50.7,27.8 137.9,88.6 152.3,181.9 8.3,52.8 -9.7,106.2 -50.5,150.3 -54.1,58.6 -139.6,92.7 -218.6,86.8 -89.4,-6.7 -188.5,-50.3 -278.2,-121.6 35,54.1 58.4,117.4 67.1,183.4 11.9,89.4 -20.8,194.7 -104.8,213.7 -36.8,8.3 -77.4,-1 -127.7,-29.1 -68.7,-38.4 -128.1,-91.1 -174.4,-154.2 24.2,85.5 11.5,179.6 -36.9,249.3 -63.9,92.4 -188.2,134.4 -289,97.8 -131.5,-47.7 -188.6,-201.9 -177.1,-329.6 11.7,-129.9 78.4,-248.5 139.6,-353.8 -88.7,16.8 -182.3,30.1 -274,10.5 -105.6,-22.6 -190.3,-92.6 -216,-178.3 -13.1,-43.7 -11.9,-89.4 3.7,-135.7 0.2,-0.8 0.7,-1.5 1.2,-2.2 30.5,-33.6 59.4,-68.6 86,-104 1.1,-1.5 2.9,-2.4 4.7,-2.5 1.7,0 3.7,0.7 4.9,2.1 22.4,25.7 47.2,46 74,60.6 37.8,25.8 80,39.5 122.2,39.6 19,0 37.7,-2.8 55.4,-8.4 50.5,-15.8 95,-51.3 125.5,-99.8 16.9,-27 29.3,-58.2 36.8,-92.9 0.4,-2.2 2,-3.9 4.1,-4.6 2.2,-0.7 4.5,-0.2 6.1,1.2 50.6,45.1 108.5,80.2 172.1,104.3 2.9,1.1 4.6,4.1 4,7.1 -0.6,3 -4,4.8 -6.4,5 -46.3,-1.6 -92.3,3.9 -135.5,15.8 -47.2,13.1 -101.9,45.7 -100.6,94.6 0.9,36.1 33.3,63.8 52.6,77.2 73.2,50.7 170.2,62.6 253.8,31.2 2.5,-1.1 5.3,-0.2 7,1.8 1.7,2.1 1.9,5.1 0.4,7.3 -29.9,47.2 -63.8,100.7 -67.3,160.2 -4.2,69 9.3,83.7 17.8,86.3 38.1,11.6 138.1,-127.6 192.3,-218.1 1,-1.6 2.6,-2.7 4.5,-3 1.8,-0.3 3.7,0.3 5.2,1.6 1.2,1.2 128.8,119.5 245.2,119.5 2.7,0 5.4,-0.1 8,-0.2 40.2,-1.9 74.5,-18.7 101.9,-49.9 4.4,-4.9 5.8,-10.4 4.5,-17.1 -4.8,-23.1 -47.7,-78.3 -280.1,-189.3 -3.1,-1.4 -6.4,-2.9 -9.6,-4.5 -3,-1.6 -4.3,-5.3 -2.8,-8.3 1.5,-3.1 5.1,-4.4 8.3,-2.9 3,1.4 6,2.8 8.9,4.2 56.3,25.5 113.9,27.5 155.8,4.9 26.7,-14.4 47,-42.9 53.1,-74.3 4.8,-25.3 -0.5,-48.7 -14.9,-66 -6.2,-7.5 -14.7,-13.7 -26.6,-19.5 -2.1,-1 -3.4,-3 -3.6,-5.3 -0.1,-2.2 1,-4.3 2.9,-5.6 43.3,-28.2 82.4,-62.1 116.3,-100.8 73.9,-84.5 119.5,-185.2 131.9,-291.1 4,-34.7 5.5,-70 6.8,-106.2 0.1,-3.2 2.7,-5.8 5.9,-6.1 7.4,-0.4 14.9,-0.5 22.4,-0.5 44.1,0 88.9,7.1 133.4,21.3 2.5,0.8 4.2,3.1 4.4,5.6 6,106 48.5,198.3 126.3,274.3 39.5,38.5 81.9,70.8 126.2,96.2 2.4,1.4 3.6,4.1 3,6.7 -14.5,66.9 -48.3,128.9 -95.3,174.6 -88.6,85.9 -221.1,127.2 -359.4,112.6"
         style="fill:#f6a257;fill-opacity:1;fill-rule:nonzero;stroke:none"
         transform="matrix(0.13333333,0,0,-0.13333333,0,2829.3333)" />
      <path
         id="path23"
         d="m 7169.62,15576.7 c -18.08,-31.6 -46.31,-56 -73.62,-79.5 -2.26,-1.9 -2.83,-5.2 -1.34,-7.8 1.46,-2.6 4.66,-3.8 7.38,-2.8 10.67,3.6 20.37,0.3 26.65,-3 11.65,-6.2 21.08,-17.8 24.56,-30.4 5.5,-19.7 1.46,-43 -12.4,-71.2 -10.7,-21.7 -34.25,-59.4 -71.79,-67.3 -17.13,-3.6 -37.68,2.6 -51.16,15.6 -7.16,6.8 -11.57,14.7 -12.93,23 0.09,4 0.12,8.1 0.09,12.1 -0.02,3.3 -2.51,6 -5.74,6.2 -2.56,0.1 -6.1,-2 -6.65,-5.2 -0.79,-4.7 -0.83,-9.4 -0.2,-14.1 -2.24,-93.4 -33.74,-185.4 -89.4,-260.6 -29.14,-39.3 -79.35,-78.4 -124.41,-59.8 -31.65,13.1 -46.34,49 -53.11,76.8 -21.02,86.5 2.78,181.6 62.1,248 1.77,2 2.09,4.9 0.75,7.3 -1.31,2.3 -3.95,3.5 -6.63,3 -54.76,-11 -116.88,-23.4 -173.63,-5.3 -65.95,20.9 -74.8,38.9 -74.19,47.6 2.71,39.7 168.7,83.1 272.7,101.1 1.85,0.4 3.46,1.5 4.38,3.2 0.9,1.6 1.03,3.6 0.32,5.3 -0.68,1.7 -68.11,170.8 -20.22,279.3 16.22,36.7 44.22,62.7 83.14,77.1 6.24,2.3 11.86,1.7 17.59,-2 19.88,-12.8 55.93,-72.7 75.95,-329.4 0.2,-3.5 0.47,-7 0.81,-10.5 0.34,-3.5 2.66,-6.2 6.75,-5.7 3.41,0.3 5.94,3.3 5.68,6.7 -0.25,3.3 -0.49,6.5 -0.76,9.8 -3.56,61.8 15.37,116.3 51.47,147.2 23.02,19.8 56.88,28.6 88.36,22.8 25.36,-4.5 45.34,-17.9 56.22,-37.5 18.25,-32.9 8.48,-73.2 -6.72,-100 z m 546.72,559.5 c -85.63,102.5 -249.69,133.9 -381.53,73 -112.01,-51.6 -198.2,-160.7 -234.23,-294.8 -8.09,40 -10.62,81.4 -13.1,121.7 -1.83,29.8 -3.73,60.7 -7.83,90.8 -7.79,57.3 -33.05,160.5 -115.02,207.6 -46.32,26.6 -102.64,29 -158.42,6.8 -74.11,-29.4 -136.74,-97.3 -159.54,-172.8 -25.92,-85.9 -20.75,-194 13.47,-303.4 -37.83,52.2 -88.57,96.8 -146.97,128.6 -79.22,43.2 -189.15,50.5 -237.12,-20.9 -21,-31.4 -26.94,-72.6 -18.73,-129.7 11.15,-78 38.93,-152.3 81.14,-218.2 -71.08,53.3 -163.51,75.3 -245.85,55.3 -109.15,-26.6 -193.05,-127.4 -195.17,-234.7 -2.75,-139.7 120.63,-248.5 243.95,-283.7 125.41,-35.7 260.02,-16.2 380.27,3.1 -47.51,-76.8 -93.6,-159.4 -108.19,-251.9 -12.4,-78.6 3.94,-159.8 43.75,-217.3 1.17,-1.7 3.1,-2.7 5.14,-2.7 h 419.88 c 1.36,0 2.68,0.4 3.77,1.3 12.65,9.6 23.27,18.3 32.5,26.6 156.22,141.2 250.67,351.1 256.15,561.9 8.24,-34.7 19.61,-69.5 37.93,-100.7 35.15,-59.7 94.57,-96.7 151.45,-94 90.18,4.1 150.74,103.4 148.67,190 -2.04,84.6 -46.65,163.7 -85.48,228.7 102.41,-16.1 215.76,30.5 285.95,119.2 65.57,83 94.66,199 79.85,318.3 -9.55,77 -36.06,143.4 -76.69,191.9"
         style="fill:#f6a257;fill-opacity:1;fill-rule:nonzero;stroke:none"
         transform="matrix(0.13333333,0,0,-0.13333333,0,2829.3333)" />
      <path
         id="path24"
         d="m 15663,15523.1 c -14.2,-10.2 -35.5,-12.6 -53.1,-6.2 -9.3,3.4 -16.5,8.9 -21.1,16 -1.5,3.7 -3.1,7.4 -4.7,11.1 -1.4,3 -4.8,4.6 -7.8,3.4 -3.1,-1.1 -4.8,-4.3 -4,-7.4 1.2,-4.7 3,-9 5.4,-13 35.3,-86.5 43.3,-183.5 22.3,-274.7 -11,-47.7 -41.2,-103.7 -90.1,-104.6 -0.3,0 -0.7,0 -1,0 -35.6,0 -64.3,30.7 -78.4,49.2 -53.9,71 -70,167.6 -42.2,252.1 0.8,2.6 -0.1,5.4 -2.2,7 -1.1,0.8 -2.4,1.2 -3.8,1.2 -1.2,0 -2.4,-0.3 -3.5,-1.1 -45.9,-31.9 -97.8,-68.1 -157,-74.2 -68.9,-7.2 -84.1,5.7 -87.1,14 -13.4,37.4 121.4,143.5 209.5,201.7 1.6,1 2.6,2.7 2.8,4.6 0.2,1.9 -0.5,3.7 -1.9,5 -1.2,1.3 -130.7,129.3 -130.2,247.9 0.2,40.2 15.4,75.2 45.4,103.9 4.8,4.7 10.2,6.4 16.9,5.2 23.2,-3.7 80.2,-44.2 201.4,-271.5 1.5,-3.1 3.2,-6.3 4.9,-9.4 1.7,-3 5.6,-4 8.5,-2.4 3,1.6 4.1,5.3 2.5,8.4 -1.5,2.9 -3.1,5.8 -4.6,8.7 -28,55.1 -32.5,112.7 -11.8,155.4 13.3,27.4 40.9,49 72,56.3 25.1,6 48.7,1.7 66.5,-11.9 29.9,-22.9 37,-63.7 33.8,-94.3 -3.9,-36.2 -20.1,-69.8 -35.7,-102.4 -1.3,-2.7 -0.5,-5.9 1.9,-7.7 2.4,-1.7 5.8,-1.6 7.9,0.4 8.4,7.6 18.4,8.5 25.7,7.9 13.1,-1 26.4,-7.9 34.6,-18 12.9,-15.9 18.5,-38.9 17.1,-70.2 -1.1,-24.2 -7.6,-68.1 -38.9,-90.4 z m 465.9,542.9 c 26.9,102.2 7.3,220.2 -54.1,323.6 -39.5,66.8 -90.3,117 -147,145.3 -119.4,59.7 -282.3,22.9 -378.9,-85.6 -82,-92.2 -117.4,-226.7 -96.8,-363.9 -23.4,33.5 -42.4,70.4 -60.7,106.4 -13.6,26.6 -27.7,54 -43.5,79.9 -30,49.5 -94.4,134 -188.4,144.3 -53.1,6.2 -105.6,-14.4 -147.9,-57 -56.2,-56.7 -86.5,-143.9 -77.1,-222.2 10.6,-89.1 58.5,-186.2 133.6,-272.7 -55.5,32.6 -119.9,53.3 -186.1,59.1 -89.8,8.2 -193.7,-29.4 -209,-114.1 -6.7,-37.2 4.4,-77.3 34.7,-126.3 41.4,-67 96.6,-124.1 161.6,-167.5 -86.6,20.4 -179.9,3.6 -247.4,-47.7 -2.3,-1.7 -4.4,-3.7 -6.5,-5.7 -1.2,-1.2 -2.5,-2.5 -3.8,-3.6 -1.7,-1.4 -2.5,-3.7 -2,-6 24.2,-117.9 19.1,-237.4 -15.1,-354.9 -0.7,-2.3 0.1,-4.7 1.8,-6.3 68.4,-62.6 174.9,-92.7 277.5,-79.1 129.3,17.4 244.9,89.2 347.4,154.9 -12.9,-89.3 -22.1,-183.5 1.5,-274.1 24.3,-93.2 86.6,-169.5 162.6,-199.4 0.8,-0.3 1.5,-0.4 2.3,-0.4 h 152.9 c 0.8,0 1.5,0.1 2.2,0.4 87.4,32.5 171.6,118.8 219.8,225.3 86.7,191.7 89.3,421.9 10.1,617.2 21.5,-28.7 45.5,-55.5 75,-76.9 56.1,-40.7 125.3,-50.8 176.4,-25.7 81,39.9 96.8,155.1 60.3,233.6 -35.7,76.7 -108.2,131.4 -169.8,175.5 100.4,26.1 185.6,114.2 214.4,223.6"
         style="fill:#f6a257;fill-opacity:1;fill-rule:nonzero;stroke:none"
         transform="matrix(0.13333333,0,0,-0.13333333,0,2829.3333)" />
      <path
         id="path25"
         d="m 10931,14888.3 c -122.9,12.2 -252.4,-38.1 -351.4,-135.4 13.4,38.5 32.2,75.6 50.5,111.6 13.5,26.6 27.5,54.1 39.2,82.1 22.3,53.4 52.8,155.2 6,237.3 -26.4,46.4 -73.7,77 -133,86.1 -78.8,12.3 -167.2,-14.5 -225.2,-68.1 -65.8,-60.9 -116.2,-156.7 -142.1,-268.3 -6.2,64.1 -27.3,128.3 -61.5,185.3 -46.4,77.4 -137.45,139.4 -215.07,102.1 -33.98,-16.4 -60,-48.9 -81.9,-102.3 -29.86,-72.8 -43.6,-151 -40.6,-229.2 -34.21,82 -102.68,147.8 -183.93,172.3 -107.6,32.4 -231.01,-12 -287.16,-103.4 -44.41,-72.2 -45.75,-167.6 -3.7,-261.7 1.02,-2.3 3.24,-3.7 5.7,-3.7 h 858.56 c 2.4,0 4.7,1.4 5.7,3.7 46.8,105.6 111.6,151.9 193.6,137.2 5.9,-1.1 10.3,-4.1 13.3,-9.1 7.4,-12.5 10.7,-44.1 -15.6,-123.6 -0.6,-1.9 -0.3,-4 0.9,-5.6 1.2,-1.7 3,-2.6 5,-2.6 h 825.9 c 2.1,0 4.1,1.1 5.3,2.9 1.1,1.8 1.2,4 0.3,6 -47,100.2 -155,175.1 -268.8,186.4"
         style="fill:#f6a257;fill-opacity:1;fill-rule:nonzero;stroke:none"
         transform="matrix(0.13333333,0,0,-0.13333333,0,2829.3333)" />
      <path
         id="path26"
         d="m 12592.4,15359.4 c 2.1,-2.7 6,-3.1 8.8,-1.2 2.5,1.9 5.1,3.9 7.8,5.9 50.1,36.2 106.2,49.6 151.8,35.7 29.1,-8.9 54.6,-32.7 66.7,-62.4 9.8,-23.8 9.3,-47.8 -1.4,-67.5 -18.1,-33.1 -57.3,-46.5 -88,-48 -36.1,-2 -72.1,9 -106.6,19.4 -2.8,0.8 -5.9,-0.5 -7.3,-3.1 -1.4,-2.6 -0.7,-5.9 1.6,-7.7 8.7,-7.1 11.2,-17 11.8,-24.1 1,-13.2 -3.7,-27.3 -12.5,-37 -13.7,-15.3 -35.4,-24.4 -66.7,-27.8 -24,-2.6 -68.5,-3.1 -95.4,24.3 -12.2,12.5 -17.9,33.3 -14.3,51.6 2,9.7 6.2,17.7 12.5,23.3 3.5,2.1 6.9,4.2 10.3,6.4 2.7,1.8 3.7,5.3 2.2,8.2 -1.6,2.9 -5.1,4 -8,2.8 -4.4,-1.9 -8.5,-4.4 -12,-7.4 -80,-48.3 -174.4,-71 -267.8,-64.5 -48.9,3.4 -108.9,24.6 -117.4,72.7 -6.2,35.6 20.1,69.2 36.3,86.1 61.7,64.2 154.5,95.3 242.6,80.8 2.5,-0.2 5.3,0.9 6.5,3.3 1.3,2.3 0.9,5.3 -1,7.2 -38.7,40.3 -82.5,86.1 -97.7,143.6 -17.7,66.9 -7.4,84 0.3,88.2 35.1,18.7 160.7,-97.7 231.7,-175.7 1.4,-1.5 3.2,-2.1 5.1,-2.1 1.8,0.1 3.6,1.1 4.6,2.6 1.1,1.5 107.5,149.2 224.7,167.1 39.9,6.1 76.7,-3.6 109.8,-28.7 5.3,-4 7.7,-9.1 7.7,-16 -0.1,-23.5 -31.3,-86 -237.2,-241 -2.8,-2 -5.6,-4.1 -8.3,-6.3 -2.7,-2.1 -3.2,-6 -1.2,-8.7 z m 768,62.8 c -103.8,66.8 -242.1,80.9 -374.5,39.3 29.4,28.3 63,52.7 95.6,76.4 24.2,17.6 49.2,35.7 72.3,55.3 44.2,37.4 117.7,114.1 113.4,208.6 -2.4,53.3 -30.6,102.1 -79.3,137.3 -64.7,46.7 -155.6,63.2 -231.5,41.7 -86.4,-24.2 -174.8,-86.6 -248.6,-174.2 23.6,59.9 34,126.6 29.5,193 -6.1,90 -59,186.7 -145,188.7 -0.9,0 -1.9,0 -2.7,0 -36.9,0 -74.1,-17.1 -116.8,-53.8 -59.8,-51.3 -107.5,-114.6 -140.4,-185.6 6.8,88.5 -24.3,178.3 -85.4,237 -81.1,77.9 -211.3,94.4 -302.8,38.7 -119.4,-72.8 -144.8,-235.3 -108.3,-358.2 37.2,-125.1 126,-228.1 206.9,-319.1 -90.3,-1.1 -184.6,-6.6 -270.7,-44 -99,-43.1 -168.2,-128.5 -176.4,-217.6 -13.7,-149.1 133.3,-269.6 285.7,-311.6 202.8,-55.9 430.7,-22.9 611.5,85.7 -24.9,-25.6 -48.1,-53.9 -64.6,-86.1 -31.5,-61.8 -30.7,-131.7 2,-178.3 28.3,-40.1 75.5,-57.7 124.3,-57.7 41,0 83,12.4 115.8,34.4 70.4,47.2 111.7,124.3 147.1,194.9 41.3,-95.1 141.6,-165.6 254.1,-177.2 105,-10.5 218.7,27 311.4,103.6 59.8,49.4 101.5,107.5 120.7,167.8 40.5,127.3 -21.2,282.5 -143.3,361"
         style="fill:#f6a257;fill-opacity:1;fill-rule:nonzero;stroke:none"
         transform="matrix(0.13333333,0,0,-0.13333333,0,2829.3333)" />
      <path
         id="path27"
         d="m 9338.87,15985.5 c 9.46,-20.9 31.96,-32.8 54.38,-29.2 22.58,3.7 39.97,22.2 42.31,45 6.12,61.2 38.83,119.6 92.13,164.5 52.11,43.9 118.44,69.1 182.07,69.1 0.15,0 0.3,0 0.44,0 10.16,0 20.29,-0.6 30.13,-1.9 68.21,-8.6 133.69,-44.7 184.44,-101.8 49.79,-55.9 80.73,-128.3 84.73,-198.5 1.2,-20.1 14.2,-37.7 33.1,-44.6 5.7,-2.1 11.6,-3.1 17.5,-3.1 13.6,0 26.9,5.4 36.6,15.6 99.5,104.4 190.8,193.9 302.4,232.5 31,10.9 65.5,16.7 99.8,16.7 0.1,0 0.3,0 0.4,0 42.7,0 85,-9.2 119,-25.9 35.7,-17.6 62.5,-42.4 79.5,-73.8 6.5,-11.9 17.1,-20.6 30.1,-24.5 12.9,-3.9 26.7,-2.5 38.6,4 12,6.4 20.7,17.1 24.5,30.1 3.9,13 2.5,26.7 -3.9,38.6 -27,49.8 -69.9,90.2 -124.2,116.7 -48.5,23.7 -105.1,36.2 -163.8,36.2 -46.3,0 -91.2,-7.5 -133.5,-22.3 -112.7,-39.8 -201.8,-117 -274.4,-189 -18.7,58.1 -49.9,112.8 -90.6,158.7 -66.94,75.2 -154.81,123.2 -247.45,135.1 -14.03,1.7 -28.48,2.7 -42.95,2.7 -88.55,-0.2 -176.54,-33.2 -247.82,-93 -39.19,-33 -71.45,-73.5 -93.74,-117.6 -17,20.3 -34.15,37.3 -52.23,51.9 -54.95,44.3 -117.34,67.8 -180.56,67.8 l -5.75,-0.1 c -56.17,-1.4 -110.99,-26.2 -154.37,-69.6 -32.3,-32.7 -54.28,-73.7 -62.46,-116.3 -66.02,30.2 -138.27,46.2 -209.5,46.2 -13.35,0 -26.67,-0.5 -39.58,-1.6 -27.87,-2.3 -48.7,-26.8 -46.41,-54.7 2.31,-27.9 27.33,-48.8 54.69,-46.4 10.27,0.8 21.09,0.8 31.64,1.3 86.58,0 171.96,-28.5 240.41,-80.4 19.13,-14.4 46.05,-13.4 64.05,2.4 17.98,15.8 22.43,42.4 10.59,63.2 -6.11,10.9 -8.99,21.8 -9.03,34.6 -0.29,26.1 14.1,56.8 37.56,80.1 24.14,24.5 55.81,39.3 84.73,39.8 l 3.5,0.1 c 39.49,0 79.91,-15.7 116.89,-45.4 35.42,-28.5 65.99,-68.7 86.06,-113.2"
         style="fill:#f6a257;fill-opacity:1;fill-rule:nonzero;stroke:none"
         transform="matrix(0.13333333,0,0,-0.13333333,0,2829.3333)" />
      <path
         id="path28"
         d="m 9715.17,16992.6 c -30.72,8.8 -64.65,6.6 -98.59,-5.7 93.74,77.6 182.46,163.7 181.73,211.1 -0.17,10.8 -4.6,19.4 -13.18,25.7 -36.39,26.5 -76.61,36.2 -119.8,28.7 -109.43,-18.9 -203.63,-140.8 -225.07,-170.4 -35.49,36.9 -193.98,196.7 -245.11,168 -19.52,-11.2 -20.98,-44.7 -4.44,-102.4 15.49,-54.2 54.15,-97 91.21,-134.6 -86.38,6.9 -174.98,-27.4 -234.13,-91.4 -21.37,-23.1 -45.26,-58.8 -37.66,-97.6 10.74,-55 74.37,-77.7 130.33,-80.6 87.81,-4.4 176,16.4 252.52,59.1 -0.81,-2.6 -1.46,-5.2 -1.98,-8.1 -4.04,-22.5 3.36,-47 18.91,-62.3 22.02,-21.6 52.33,-27.7 79.63,-27.7 9.33,0 18.34,0.7 26.53,1.7 34.3,4.5 58.51,15.4 74.01,33.4 10.67,12.3 16.27,30.2 14.66,46.6 -0.58,5.9 -2.12,11.5 -4.45,16.5 30.16,-8.1 60.94,-15 93.15,-12.7 43.44,3 80.65,24.6 97.12,56.4 12.11,23.3 12.33,51.1 0.59,78.3 -14.13,32.7 -43.24,58.8 -75.98,68"
         style="fill:#d4773b;fill-opacity:1;fill-rule:nonzero;stroke:none"
         transform="matrix(0.13333333,0,0,-0.13333333,0,2829.3333)" />
      <path
         id="path29"
         d="m 7122.34,15726.5 c -35.25,6.4 -72.89,-3.5 -98.71,-25.6 -24.31,-20.8 -41.25,-50.3 -49.82,-85.3 -12.77,121.1 -35.37,242.6 -75.2,268.2 -9.14,5.8 -18.78,6.9 -28.68,3.2 -42.21,-15.6 -72.57,-43.8 -90.23,-83.8 -44.84,-101.6 4.56,-247.5 17.33,-281.8 -50.33,-9.1 -271.53,-52.5 -275.52,-111.2 -1.54,-22.4 25.57,-42.2 82.82,-60.4 53.62,-17.1 112.5,-8.2 162.56,1.5 -53.55,-68.4 -74.03,-160.9 -53.47,-245.6 7.45,-30.6 24,-70.2 60.46,-85.3 9.84,-4.1 19.78,-6 29.65,-6 41.95,0 82.55,33.5 109.57,69.9 52.26,70.6 83.8,155.6 90.58,243 1.68,-2.1 3.55,-4.1 5.57,-6 16.64,-16 41.22,-23.4 62.39,-18.8 40.56,8.5 66.12,45 80.41,74 15.26,31.1 19.59,57.3 13.23,80.1 -4.45,15.9 -15.95,30.2 -30.74,38 -5.29,2.8 -10.77,4.6 -16.25,5.5 22.83,20 46.34,42.7 62.14,70.5 16.91,29.7 27.58,74.7 6.83,112.1 -12.77,23 -35.81,38.6 -64.92,43.8"
         style="fill:#d4773b;fill-opacity:1;fill-rule:nonzero;stroke:none"
         transform="matrix(0.13333333,0,0,-0.13333333,0,2829.3333)" />
      <path
         id="path30"
         d="m 15694.5,15691.6 c -10.5,12.8 -26.7,21.3 -43.4,22.6 -5.9,0.4 -11.7,-0.1 -17.1,-1.5 12.9,27.5 25.4,57.8 28.8,89.5 3.6,33.9 -4.6,79.4 -38.6,105.5 -20.9,15.9 -48.3,21 -77,14.2 -34.7,-8.3 -65.4,-32.4 -80.3,-63 -14,-28.8 -17.7,-62.6 -11.6,-98.1 -60.1,105.8 -129.5,208.3 -176.1,215.8 -10.7,1.6 -19.9,-1.2 -27.6,-8.5 -32.4,-31.3 -49,-69.3 -49.1,-113 -0.5,-111.1 103.1,-225 128.5,-251.3 -42.4,-28.5 -227.8,-156.7 -208,-212.1 7.6,-21.2 40.3,-28.4 100,-22.3 55.9,5.9 106.3,37.5 148.4,66.4 -21.7,-84.1 -3.5,-177 49.2,-246.5 18.8,-24.7 49.4,-54.1 88.2,-54.1 0.5,0 0.9,0 1.3,0 56.1,1.1 89.5,59.7 102.1,114.4 19.6,85.5 14.5,176.1 -14.2,258.9 2.4,-1.2 5,-2.3 7.6,-3.3 21.5,-7.9 47,-4.9 64.6,7.7 26.4,18.8 42.1,54.3 44.1,100 1.6,34.5 -4.8,60.2 -19.8,78.7"
         style="fill:#d4773b;fill-opacity:1;fill-rule:nonzero;stroke:none"
         transform="matrix(0.13333333,0,0,-0.13333333,0,2829.3333)" />
      <path
         id="path31"
         d="m 10366.9,14846.1 c -86.7,15.5 -158.5,-34.3 -207.2,-144.3 -0.9,-2 -0.7,-4.2 0.4,-6 1.2,-1.7 3.2,-2.8 5.3,-2.8 h 202.9 c 2.7,0 5.1,1.7 5.9,4.3 22.7,68.4 27.4,112.1 14.5,133.8 -4.9,8.3 -12.2,13.3 -21.8,15"
         style="fill:#d4773b;fill-opacity:1;fill-rule:nonzero;stroke:none"
         transform="matrix(0.13333333,0,0,-0.13333333,0,2829.3333)" />
      <path
         id="path32"
         d="m 12851.6,15615.4 c 0,10.8 -4.3,19.5 -12.7,25.9 -35.9,27.3 -76,37.8 -119.2,31.1 -109.8,-16.8 -206.3,-136.8 -228.4,-166 -34.7,37.6 -189.9,200.9 -241.8,172.7 -19.7,-10.7 -21.8,-44.2 -6.4,-102.3 14.4,-54.2 53.5,-99.2 88.6,-136.3 -86.3,8.6 -175.6,-23.9 -235.9,-86.8 -21.8,-22.7 -46.4,-57.9 -39.5,-96.8 9.6,-55.2 72.8,-79.1 128.7,-83.1 87.3,-6.3 176.2,12.9 253.6,54.1 -0.9,-2.6 -1.6,-5.2 -2.1,-8 -4.5,-22.5 2.4,-47.1 17.7,-62.7 22.5,-23 54.4,-29.3 82.6,-29.3 8.1,0 15.8,0.5 23,1.3 34.4,3.8 58.8,14.2 74.6,31.8 11.1,12.4 16.9,29.7 15.6,46.4 -0.5,5.9 -1.9,11.5 -4.1,16.6 29.2,-8.5 61,-16.1 92.8,-14.6 43.5,2.2 81.2,23 98.3,54.5 12.5,23.1 13.3,50.9 2.1,78.3 -13.5,33 -42.1,59.6 -74.7,69.5 -30.6,9.4 -64.6,7.8 -98.7,-3.8 95.3,75.8 185.7,160.2 185.9,207.5"
         style="fill:#d4773b;fill-opacity:1;fill-rule:nonzero;stroke:none"
         transform="matrix(0.13333333,0,0,-0.13333333,0,2829.3333)" />
      <path
         id="path33"
         d="m 13850.6,16281.7 c -20.9,13.7 -35.6,30.8 -47.4,55.2 -15.2,31.3 -24,75.1 -27.6,137.9 -1.1,18.3 -1.8,37.4 -2.5,56.5 l -0.3,8.6 c -1.3,36.5 -2.8,72.1 -6.8,107.2 -12.7,108.5 -59.4,211.5 -135,298 -32.3,36.9 -69.3,69.6 -110.1,97.2 8.9,5.3 15.8,11.1 21.4,17.7 16.9,20.2 23.1,47.3 17.5,76.4 -6.7,34.9 -29.4,66.7 -59.3,82.9 -28.2,15.1 -61.7,20.3 -97.5,15.8 108.3,55.5 213.7,120.3 223.2,166.6 2.1,10.5 -0.3,19.9 -7.3,27.9 -29.8,33.8 -67,52 -110.7,54.1 -111,4.7 -229.3,-93.3 -256.7,-117.5 -25.4,41.8 -136.4,218.2 -195.2,218.2 -2.6,0 -5.2,-0.3 -7.6,-1.1 -21.5,-6.6 -30.2,-39 -26.6,-99 3.4,-56 32.8,-107.8 59.9,-151.1 -83.2,25.3 -176.8,11.2 -248.4,-38.4 -25.9,-17.9 -56.9,-47.6 -58,-87.1 -1.5,-56 55.7,-92 109.7,-106.9 34.6,-9.6 70.6,-15 107.6,-16.2 -50.4,-22.4 -97,-51.8 -138.8,-87.8 -7.9,32.1 -20,61.2 -36.1,86.7 -32,51.1 -79,88.4 -132.3,105.1 -18.9,6 -38.8,9 -59.1,9 -44.7,-0.2 -89.4,-14.6 -129.2,-41.8 l -2.6,-1.7 c -6.9,-4.7 -14,-9.6 -20.6,-15.3 -15.8,-13.8 -29.7,-30.2 -41.3,-48.8 -0.8,0.9 -1.4,1.9 -2.2,2.8 -26.7,35.6 -55.9,70.9 -86.6,104.9 -201.1,222 -469.2,383.3 -755,454.1 -13.2,3.3 -26.8,1.2 -38.4,-5.9 -11.6,-6.9 -19.7,-18 -23,-31.2 -3.2,-13.2 -1.2,-26.8 5.8,-38.4 7,-11.6 18.1,-19.8 31.3,-23 347.6,-85.8 656.6,-308.8 847.6,-611.7 l 123.5,-195.7 c 1.6,-2.5 4.7,-3.5 7.6,-2.4 2.7,1.1 4.4,4 3.8,6.9 l -42.1,227.5 c -0.9,4.5 -1.2,8.9 -1.2,13.2 -0.2,24.6 13.3,50.6 36.9,71.3 23.7,20.9 56.2,33.8 85.1,33.8 0.2,0 0.4,0 0.6,0 10,0 19.6,-1.5 28.7,-4.3 30.6,-9.6 57.2,-31.2 76.9,-62.4 19.3,-30.4 30.3,-69 30.2,-106 0,-13.6 -1.4,-27.1 -4.3,-40.1 l -48.8,-217.3 c -0.6,-2.9 0.8,-5.9 3.6,-7.1 2.7,-1.2 5.9,-0.4 7.6,2.1 l 128.5,182 c 26.3,37.4 60.7,71.4 102.1,101 40.5,28.9 85.5,51.2 133.6,66.4 47.4,14.9 94.1,22.5 138.9,22.5 0.2,0 0.4,0 0.6,0 35.6,0 70.7,-4.4 104.4,-12.9 84.6,-21.5 164.9,-71.9 226.1,-141.8 61.2,-70 100.4,-156.2 110.5,-242.9 3.7,-30.9 4.9,-64.7 6.2,-100.5 1.5,-41.1 3,-83.6 8.4,-125.7 6.3,-46.7 16.4,-83.6 31.9,-116.1 19,-40 47.9,-73.4 83.6,-96.5 8.3,-5.4 17.8,-8.2 27.5,-8.2 3.6,0 7.2,0.4 10.7,1.1 13.3,2.9 24.6,10.7 32,22 7.4,11.4 9.9,24.9 7.1,38.2 -2.8,13.2 -10.6,24.6 -22,32"
         style="fill:#d4773b;fill-opacity:1;fill-rule:nonzero;stroke:none"
         transform="matrix(0.13333333,0,0,-0.13333333,0,2829.3333)" />
      <path
         id="path34"
         d="M 16559.4,14705.5 H 5354.96 c -127.7,0 -239.13,-90.9 -264.97,-216.1 -3.68,-17.9 -5.53,-36.2 -5.53,-54.4 0,-149.2 121.34,-270.5 270.5,-270.5 H 16559.4 c 149.2,0 270.5,121.3 270.5,270.5 0,149.1 -121.3,270.5 -270.5,270.5"
         style="fill:#e9e9e9;fill-opacity:1;fill-rule:nonzero;stroke:none"
         transform="matrix(0.13333333,0,0,-0.13333333,0,2829.3333)" />
    </g>
  </g>
</svg>
